<svg xmlns="http://www.w3.org/2000/svg" viewBox="0 1 16 16">
  
  <!-- left wall -->
  <rect x="3" y="8" width="1.1" height="7.1" fill="#00d0ff"/>

  <!-- left door -->
  <rect x="7" y="12" width="1.1" height="3.1" fill="#00d0ff"/>

  <!-- left roof -->
  <rect x="2" y="8" width="2.1" height="1.1" fill="#00d0ff"/>
  <rect x="3" y="7" width="2.1" height="1.1" fill="#00d0ff"/>
  <rect x="4" y="6" width="2.1" height="1.1" fill="#00d0ff"/>
  <rect x="5" y="5" width="2.1" height="1.1" fill="#00d0ff"/>
  <rect x="6" y="4" width="2.1" height="1.1" fill="#00d0ff"/>
  <rect x="7" y="3" width="1.1" height="1.1" fill="#00d0ff"/>



  <!-- right wall -->
  <rect x="12" y="8" width="1.1" height="7.1" fill="#8a5cff"/>

  <!-- right door -->
  <rect x="8" y="12" width="1.1" height="3.1" fill="#8a5cff"/>

  <!-- right roof -->
  <rect x="12" y="8" width="2.1" height="1.1" fill="#8a5cff"/>
  <rect x="11" y="7" width="2.1" height="1.1" fill="#8a5cff"/>
  <rect x="10" y="6" width="2.1" height="1.1" fill="#8a5cff"/>
  <rect x="9" y="5" width="2.1" height="1.1" fill="#8a5cff"/>
  <rect x="8" y="4" width="2.1" height="1.1" fill="#8a5cff"/>
  <rect x="8" y="3" width="1.1" height="1.1" fill="#8a5cff"/>
</svg>