<svg id="svg" version="1.1" xmlns="http://www.w3.org/2000/svg" xmlns:xlink="http://www.w3.org/1999/xlink" width="400" height="400" viewBox="0, 0, 400,400"><g id="svgg"><path id="path0" d="M170.200 37.597 C 162.252 38.044,162.772 37.106,162.497 51.500 L 162.290 62.400 154.045 62.425 C 145.012 62.453,139.389 62.851,138.730 63.510 C 137.951 64.289,137.650 67.315,137.363 77.239 L 137.078 87.078 127.239 87.363 C 117.315 87.650,114.289 87.951,113.510 88.730 C 112.850 89.390,112.453 95.017,112.425 104.100 L 112.400 112.400 104.100 112.425 C 95.017 112.453,89.390 112.850,88.730 113.510 C 87.951 114.289,87.650 117.315,87.363 127.239 L 87.078 137.078 77.239 137.363 C 67.315 137.650,64.289 137.951,63.510 138.730 C 62.850 139.390,62.453 145.017,62.425 154.100 L 62.400 162.400 54.100 162.425 C 45.017 162.453,39.390 162.850,38.730 163.510 C 37.951 164.289,37.650 167.315,37.363 177.239 L 37.078 187.078 27.239 187.363 C 17.324 187.650,14.289 187.951,13.513 188.727 C 12.290 189.950,11.925 233.354,13.120 235.491 C 14.190 237.404,13.999 237.389,38.900 237.534 L 62.400 237.671 62.400 318.835 L 62.400 400.000 87.600 400.000 L 112.800 400.000 112.825 354.900 C 112.840 329.596,113.000 310.171,113.192 310.644 C 113.898 312.391,119.629 312.763,146.144 312.785 C 164.598 312.800,164.874 312.812,163.954 313.557 C 162.536 314.705,162.467 316.845,162.432 360.500 L 162.400 400.000 181.211 400.000 L 200.023 400.000 199.887 359.500 C 199.812 337.225,199.652 318.505,199.531 317.900 C 199.363 317.067,199.466 316.797,199.955 316.786 C 200.392 316.776,200.278 316.588,199.600 316.200 L 198.600 315.628 199.600 315.608 C 200.395 315.592,200.477 315.508,200.000 315.200 C 199.621 314.955,199.579 314.810,199.887 314.806 C 201.048 314.792,199.793 313.630,198.466 313.489 L 197.000 313.334 198.500 313.267 C 199.325 313.230,200.000 313.020,200.000 312.800 C 200.000 312.548,197.333 312.400,192.800 312.400 C 185.612 312.400,185.022 312.311,186.253 311.410 C 188.017 310.121,188.243 240.483,186.490 238.730 C 184.788 237.028,118.492 236.563,114.267 238.223 C 113.863 238.382,113.380 238.891,113.192 239.356 C 112.981 239.879,112.835 237.764,112.810 233.800 C 112.706 217.336,112.138 213.412,109.795 212.973 C 108.117 212.658,107.943 212.000,109.538 212.000 C 112.063 212.000,112.739 207.992,112.785 192.758 L 112.800 187.715 123.724 187.512 C 138.561 187.237,137.237 188.561,137.512 173.724 L 137.715 162.800 142.758 162.785 C 152.947 162.754,160.428 162.150,161.289 161.289 C 162.150 160.428,162.754 152.947,162.785 142.758 L 162.800 137.715 173.724 137.512 C 188.561 137.237,187.237 138.561,187.512 123.724 L 187.715 112.800 193.858 112.800 C 197.686 112.800,200.000 112.649,200.000 112.400 C 200.000 112.180,199.415 111.976,198.700 111.947 L 197.400 111.895 198.800 111.600 C 199.962 111.355,200.030 111.291,199.200 111.221 C 198.202 111.137,198.203 111.136,199.345 110.720 C 200.204 110.407,200.354 110.217,199.945 109.958 C 199.499 109.675,199.508 109.610,200.000 109.600 C 200.533 109.589,200.533 109.541,200.000 109.163 C 199.552 108.847,199.526 108.688,199.896 108.537 C 200.270 108.386,200.242 108.184,199.780 107.723 C 199.229 107.172,199.231 107.013,199.793 106.155 C 200.137 105.630,200.279 105.200,200.109 105.200 C 199.939 105.200,199.800 91.610,199.800 75.000 C 199.800 58.390,199.939 44.800,200.109 44.800 C 200.279 44.800,200.137 44.370,199.793 43.845 C 199.231 42.987,199.229 42.828,199.780 42.277 C 200.242 41.816,200.270 41.614,199.896 41.463 C 199.526 41.312,199.552 41.153,200.000 40.837 C 200.533 40.459,200.533 40.411,200.000 40.400 C 199.508 40.390,199.499 40.325,199.945 40.042 C 200.354 39.783,200.204 39.593,199.345 39.280 C 198.203 38.864,198.202 38.863,199.200 38.779 C 200.030 38.709,199.962 38.645,198.800 38.400 L 197.400 38.105 198.700 38.053 C 199.415 38.024,200.000 37.820,200.000 37.600 C 200.000 37.150,178.173 37.148,170.200 37.597 M226.300 312.689 C 227.015 312.778,228.185 312.778,228.900 312.689 C 229.615 312.601,229.030 312.528,227.600 312.528 C 226.170 312.528,225.585 312.601,226.300 312.689 " stroke="none" fill="#04d4fc" fill-rule="evenodd"></path><path id="path1" d="M200.000 37.600 C 200.000 37.820,199.415 38.024,198.700 38.053 L 197.400 38.105 198.800 38.400 C 199.962 38.645,200.030 38.709,199.200 38.779 C 198.202 38.863,198.203 38.864,199.345 39.280 C 200.204 39.593,200.354 39.783,199.945 40.042 C 199.499 40.325,199.508 40.390,200.000 40.400 C 200.533 40.411,200.533 40.459,200.000 40.837 C 199.552 41.153,199.526 41.312,199.896 41.463 C 200.270 41.614,200.242 41.816,199.780 42.277 C 199.229 42.828,199.231 42.987,199.793 43.845 C 200.137 44.370,200.279 44.800,200.109 44.800 C 199.939 44.800,199.800 58.390,199.800 75.000 C 199.800 91.610,199.939 105.200,200.109 105.200 C 200.279 105.200,200.137 105.630,199.793 106.155 C 199.231 107.013,199.229 107.172,199.780 107.723 C 200.242 108.184,200.270 108.386,199.896 108.537 C 199.526 108.688,199.552 108.847,200.000 109.163 C 200.533 109.541,200.533 109.589,200.000 109.600 C 199.508 109.610,199.499 109.675,199.945 109.958 C 200.354 110.217,200.204 110.407,199.345 110.720 C 198.203 111.136,198.202 111.137,199.200 111.221 C 200.030 111.291,199.962 111.355,198.800 111.600 L 197.400 111.895 198.700 111.947 C 199.415 111.976,200.000 112.180,200.000 112.400 C 200.000 112.649,202.314 112.800,206.142 112.800 L 212.285 112.800 212.488 123.724 C 212.763 138.561,211.439 137.237,226.276 137.512 L 237.200 137.715 237.215 142.758 C 237.246 152.947,237.850 160.428,238.711 161.289 C 239.572 162.150,247.053 162.754,257.242 162.785 L 262.285 162.800 262.488 173.724 C 262.763 188.561,261.439 187.237,276.276 187.512 L 287.200 187.715 287.215 192.758 C 287.261 207.992,287.937 212.000,290.462 212.000 C 292.057 212.000,291.883 212.658,290.205 212.973 C 287.859 213.413,287.282 217.356,287.188 233.600 C 287.164 237.673,287.019 239.877,286.808 239.356 C 286.620 238.891,286.137 238.381,285.733 238.222 C 281.540 236.567,215.206 237.034,213.510 238.730 C 212.650 239.590,212.450 246.437,212.450 275.000 C 212.450 305.636,212.628 310.593,213.758 311.419 C 214.876 312.236,213.675 312.400,206.567 312.400 C 202.737 312.400,200.000 312.557,200.000 312.776 C 200.000 312.983,199.325 313.222,198.500 313.309 L 197.000 313.466 198.457 313.533 C 199.781 313.594,201.125 314.791,199.887 314.806 C 199.579 314.810,199.621 314.955,200.000 315.200 C 200.477 315.508,200.395 315.592,199.600 315.608 L 198.600 315.628 199.600 316.200 C 200.278 316.588,200.392 316.776,199.955 316.786 C 199.471 316.796,199.361 317.074,199.514 317.900 C 199.847 319.701,200.000 335.709,200.000 368.796 L 200.000 400.000 218.800 400.000 L 237.600 400.000 237.568 360.500 C 237.533 316.845,237.464 314.705,236.046 313.557 C 235.126 312.812,235.406 312.800,254.056 312.787 C 280.440 312.769,286.099 312.398,286.808 310.644 C 287.000 310.171,287.160 329.596,287.175 354.900 L 287.200 400.000 312.399 400.000 L 337.598 400.000 337.699 318.900 L 337.800 237.800 361.200 237.597 C 385.957 237.382,385.816 237.393,386.880 235.491 C 388.075 233.354,387.710 189.950,386.487 188.727 C 385.715 187.955,382.693 187.657,372.700 187.366 L 362.800 187.078 362.785 182.239 C 362.762 174.976,362.134 164.997,361.641 164.078 C 360.994 162.867,359.573 162.694,348.200 162.436 L 337.800 162.200 337.564 151.800 C 337.306 140.427,337.133 139.006,335.922 138.359 C 334.999 137.864,325.015 137.238,317.700 137.215 L 312.800 137.200 312.785 132.300 C 312.762 124.985,312.136 115.001,311.641 114.078 C 310.994 112.867,309.573 112.694,298.200 112.436 L 287.800 112.200 287.564 101.800 C 287.306 90.427,287.133 89.006,285.922 88.359 C 284.999 87.864,275.015 87.238,267.700 87.215 L 262.800 87.200 262.785 82.300 C 262.762 74.985,262.136 65.001,261.641 64.078 C 260.994 62.867,259.573 62.694,248.200 62.436 L 237.800 62.200 237.564 51.800 C 237.306 40.427,237.133 39.006,235.922 38.359 C 234.092 37.379,200.000 36.659,200.000 37.600 M228.900 312.689 C 228.185 312.778,227.015 312.778,226.300 312.689 C 225.585 312.601,226.170 312.528,227.600 312.528 C 229.030 312.528,229.615 312.601,228.900 312.689 " stroke="none" fill="#8c5cfc" fill-rule="evenodd"></path></g></svg>