<svg xmlns="http://www.w3.org/2000/svg" viewBox="0 1 16 16">
  
  <!-- left door -->
  <rect x="7" y="2" width="1.1" height="1.1" fill="#00d0ff"/>
  <rect x="6" y="3" width="2.1" height="1.1" fill="#00d0ff"/>
  <rect x="5" y="4" width="2.1" height="1.1" fill="#00d0ff"/>
  <rect x="4" y="5" width="2.1" height="1.1" fill="#00d0ff"/>
  <rect x="4" y="6" width="1.1" height="1.1" fill="#00d0ff"/>
  <rect x="7" y="11" width="1.1" height="1.1" fill="#00d0ff"/>
  <rect x="7" y="12" width="1.1" height="1.1" fill="#00d0ff"/>
  <rect x="7" y="15" width="1.1" height="1.1" fill="#00d0ff"/>






  <!-- right door -->
  <rect x="8" y="2" width="1.1" height="1.1" fill="#8a5cff"/>
  <rect x="8" y="3" width="2.1" height="1.1" fill="#8a5cff"/>
  <rect x="9" y="4" width="2.1" height="1.1" fill="#8a5cff"/>
  <rect x="10" y="5" width="2.1" height="1.1" fill="#8a5cff"/>
  <rect x="11" y="6" width="2.1" height="1.1" fill="#8a5cff"/>
  <rect x="11" y="7" width="2.1" height="1.1" fill="#8a5cff"/>
  <rect x="10" y="8" width="2.1" height="1.1" fill="#8a5cff"/>
  <rect x="9" y="9" width="2.1" height="1.1" fill="#8a5cff"/>
  <rect x="8" y="10" width="2.1" height="1.1" fill="#8a5cff"/>
  <rect x="8" y="11" width="1.1" height="1.1" fill="#8a5cff"/>
  <rect x="8" y="12" width="1.1" height="1.1" fill="#8a5cff"/>
  <rect x="8" y="15" width="1.1" height="1.1" fill="#8a5cff"/>


</svg>